<svg version="1.0" xmlns="http://www.w3.org/2000/svg" viewBox="0 0 432.000000 176.000000"
 preserveAspectRatio="xMidYMid meet">

 <style>
	.svg-path {
		fill: #03A9F4;
	}

 </style>

<metadata>
Created by potrace 1.13, written by Peter Selinger 2001-2015
</metadata>
<g transform="translate(0.000000,176.000000) scale(0.100000,-0.100000)"
fill="#000000" stroke="none">
<path class="svg-path f" d="M2337 1719 c-158 -23 -279 -159 -321 -362 -9 -42 -16 -79 -16 -82 0
-3 -17 -5 -37 -5 -83 0 -108 -25 -74 -71 13 -17 17 -30 11 -34 -6 -3 -10 -15
-10 -25 0 -15 10 -20 48 -25 26 -3 54 -7 62 -8 13 -2 15 -33 14 -217 -2 -204
-3 -219 -28 -289 -14 -40 -44 -107 -66 -148 -22 -41 -40 -78 -40 -81 1 -4 17
11 36 33 l36 40 -33 -48 c-18 -26 -39 -53 -46 -59 -7 -6 -13 -28 -13 -49 0
-49 20 -52 61 -8 24 26 32 29 44 19 22 -18 55 15 93 93 79 160 101 284 103
578 l1 177 56 6 c31 3 73 6 92 6 20 0 44 6 55 14 20 15 19 15 -5 17 -22 1 -22
2 8 10 43 13 43 56 0 72 -10 3 -18 14 -18 23 0 14 -7 15 -47 10 -27 -4 -68 -9
-92 -13 l-43 -6 7 44 c15 93 68 175 134 208 20 10 72 27 116 36 44 10 88 22
98 27 18 9 18 11 1 29 -9 10 -38 25 -63 33 l-46 14 42 1 c45 1 57 10 47 35 -7
18 -66 20 -167 5z"/>
<path class="svg-path l" d="M3425 1602 c-6 -4 -22 -23 -35 -42 l-25 -35 -5 30 c-9 53 -33 41 -69
-37 -51 -111 -81 -243 -91 -401 -5 -76 -14 -173 -19 -215 -5 -43 -6 -97 -1
-122 5 -25 12 -62 16 -83 13 -72 86 -117 188 -117 41 0 106 22 106 35 0 3 -12
3 -27 0 -22 -4 -20 -2 7 8 42 17 71 60 52 79 -9 9 -19 10 -42 1 -26 -10 -30
-9 -36 9 -5 17 -12 20 -49 16 -24 -3 -49 -2 -56 3 -24 14 -22 129 5 328 21
151 35 220 65 310 47 139 58 199 39 223 -7 10 -18 14 -23 10z"/>
<path class="svg-path t" d="M2774 1565 c-21 -40 -31 -44 -30 -12 1 15 -5 23 -19 25 -22 3 -36
-39 -72 -216 l-17 -84 -43 7 c-71 10 -105 -24 -66 -68 17 -18 17 -19 0 -28 -9
-6 -17 -16 -17 -24 0 -17 61 -45 96 -45 l24 0 0 -172 c0 -95 5 -190 11 -211
11 -42 63 -107 85 -107 8 0 14 -4 14 -10 0 -22 178 -56 226 -43 l29 7 -30 7
-30 7 32 1 c44 1 79 16 87 37 8 21 -7 38 -37 40 -12 1 -29 4 -37 7 -8 4 -28 8
-45 10 -27 4 -26 4 8 6 65 2 40 18 -40 25 -52 4 -86 12 -103 25 l-25 18 0 176
c0 96 2 178 5 180 3 3 47 8 99 11 51 4 103 12 115 18 21 12 21 12 -4 19 l-25
7 27 1 c15 1 30 6 33 12 10 16 -4 59 -19 59 -7 0 -18 12 -25 26 -8 19 -16 24
-29 19 -51 -22 -153 -26 -152 -6 0 3 9 44 20 91 19 85 25 174 14 204 -10 27
-40 18 -60 -19z"/>
<path class="svg-path s" d="M350 1499 c-89 -15 -179 -66 -217 -123 -29 -42 -33 -56 -33 -114 0
-159 88 -231 386 -317 86 -25 172 -54 193 -64 20 -10 41 -16 48 -14 7 3 22
-10 33 -29 20 -33 27 -68 13 -68 -5 0 -15 -13 -24 -29 -12 -21 -33 -34 -80
-50 -35 -12 -65 -18 -66 -14 -3 10 -339 6 -403 -4 l-45 -7 40 -7 c26 -4 16 -5
-30 -3 -58 3 -76 1 -104 -17 -30 -18 -32 -22 -19 -35 8 -8 37 -17 66 -21 44
-5 51 -9 49 -27 -2 -18 5 -22 53 -28 73 -11 357 0 447 17 179 34 263 113 263
246 0 155 -97 235 -388 319 -227 66 -262 86 -262 146 0 44 43 79 117 94 72 15
126 8 236 -31 64 -23 91 -29 99 -21 16 16 -13 56 -62 88 -48 32 -47 40 3 19
46 -19 73 -19 81 0 7 18 -41 44 -135 73 -81 25 -186 34 -259 21z"/>
<path class="svg-path o" d="M1393 1300 c73 -39 74 -47 1 -13 -71 32 -132 40 -159 20 -16 -13 -17
-17 -6 -31 7 -9 21 -16 31 -16 37 0 27 -14 -27 -36 -153 -62 -228 -190 -227
-384 1 -103 22 -177 68 -239 25 -34 94 -90 111 -91 6 0 3 5 -5 11 -12 9 -11
10 5 4 11 -4 38 -10 60 -13 39 -6 39 -6 10 -12 -16 -3 11 -6 60 -6 53 0 78 3
60 7 -30 7 -30 7 -3 8 15 0 57 12 94 25 37 14 72 23 76 20 5 -3 7 0 6 7 -2 6
3 14 11 17 9 3 11 0 6 -9 -5 -8 -4 -11 1 -6 5 5 9 12 9 16 0 13 79 85 90 82 6
-1 7 1 3 5 -4 4 -1 12 7 18 22 16 45 117 45 199 0 55 -6 84 -24 124 -13 28
-22 54 -19 56 9 10 -55 93 -116 149 -60 56 -139 101 -196 112 -22 4 -14 -2 28
-24z m-15 -136 c131 -73 202 -175 202 -289 0 -49 -5 -69 -26 -100 -64 -99
-215 -152 -304 -107 -59 29 -80 72 -80 162 0 130 38 204 139 267 31 20 58 37
60 39 2 2 -2 11 -10 20 -10 12 -26 15 -71 12 -32 -2 -58 -3 -58 -1 0 5 62 32
74 33 5 0 38 -16 74 -36z"/>
<path class="svg-path y" d="M4227 1232 c-9 -10 -22 -34 -29 -53 l-13 -34 -5 35 c-4 27 -10 36
-27 38 -20 3 -23 -1 -23 -33 0 -35 -8 -74 -66 -330 -15 -66 -28 -134 -28 -152
-1 -18 -4 -34 -6 -36 -3 -3 -30 48 -60 112 -30 64 -79 159 -110 211 -31 52
-67 120 -79 151 -42 107 -69 124 -98 64 -13 -28 -19 -32 -25 -20 -10 17 -34
20 -42 6 -10 -16 20 -134 49 -191 32 -65 115 -200 122 -200 2 0 -4 15 -15 33
-43 72 -93 170 -74 148 32 -39 175 -318 193 -377 20 -66 38 -91 50 -72 6 9 9
3 9 -17 0 -23 3 -27 10 -15 13 21 12 6 -1 -24 -7 -14 -16 -23 -20 -20 -5 3 -6
-3 -2 -12 4 -12 3 -15 -5 -10 -8 5 -10 1 -5 -10 5 -13 3 -15 -7 -9 -8 5 -11 4
-6 -3 6 -10 -20 -57 -85 -159 -7 -13 -18 -23 -22 -23 -5 0 -20 -9 -34 -20 -19
-14 -41 -20 -79 -20 -30 0 -54 -4 -54 -10 0 -5 5 -10 12 -10 6 0 9 -3 6 -6 -4
-3 -15 -1 -26 5 -25 13 -72 -2 -72 -22 0 -7 11 -24 25 -37 14 -13 24 -29 21
-36 -9 -23 19 -34 83 -34 117 0 207 58 295 190 63 93 145 269 190 405 81 247
125 560 85 600 -14 14 -17 14 -32 -3z"/>
</g>
</svg>
